{"accessors" : [{"bufferView" : 0, "byteOffset" : 0, "componentType" : 5123, "count" : 16128, "type" : "SCALAR", "max" : [16127], "min" : [0]}, {"bufferView" : 1, "byteOffset" : 0, "componentType" : 5126, "count" : 16128, "type" : "VEC3", "max" : [2.7376062870025635, 1.4310814142227173, 3.1581382751464844], "min" : [-2.7376062870025635, -0.984516441822052, 0.30027779936790466], "name" : "POSITION"}, {"bufferView" : 1, "byteOffset" : 12, "componentType" : 5126, "count" : 16128, "type" : "VEC3", "max" : [0.9994558095932007, 0.9999584555625916, 0.9995100498199463], "min" : [-0.9999354481697083, -0.9994076490402222, -1.000002145767212], "name" : "NORMAL"}, {"bufferView" : 1, "byteOffset" : 24, "componentType" : 5126, "count" : 16128, "type" : "VEC2", "max" : [0, -0], "min" : [0, -0], "name" : "TEXCOORD_0"}, {"bufferView" : 0, "byteOffset" : 32256, "componentType" : 5123, "count" : 2688, "type" : "SCALAR", "max" : [2687], "min" : [0]}, {"bufferView" : 2, "byteOffset" : 0, "componentType" : 5126, "count" : 2688, "type" : "VEC3", "max" : [2.0469298362731934, 1.4135545492172241, 2.5901246070861816], "min" : [-2.0469298362731934, -0.925605833530426, 1.031172513961792], "name" : "POSITION"}, {"bufferView" : 2, "byteOffset" : 12, "componentType" : 5126, "count" : 2688, "type" : "VEC3", "max" : [0.9856937527656555, 0.941632091999054, 0.9676555395126343], "min" : [-0.9856937527656555, -0.9762745499610901, -0.9998223781585693], "name" : "NORMAL"}, {"bufferView" : 2, "byteOffset" : 24, "componentType" : 5126, "count" : 2688, "type" : "VEC2", "max" : [0, -0], "min" : [0, -0], "name" : "TEXCOORD_0"}, {"bufferView" : 0, "byteOffset" : 37632, "componentType" : 5123, "count" : 1296, "type" : "SCALAR", "max" : [1295], "min" : [0]}, {"bufferView" : 3, "byteOffset" : 0, "componentType" : 5126, "count" : 1296, "type" : "VEC3", "max" : [1.3001011610031128, 0.6307893991470337, 3.1135830879211426], "min" : [-1.3001011610031128, -0.7190285921096802, 1.6378663778305054], "name" : "POSITION"}, {"bufferView" : 3, "byteOffset" : 12, "componentType" : 5126, "count" : 1296, "type" : "VEC3", "max" : [0.9993364214897156, 0.9877539277076721, 0.9988718032836914], "min" : [-0.9993364214897156, -0.999285101890564, -0.8297165036201477], "name" : "NORMAL"}, {"bufferView" : 3, "byteOffset" : 24, "componentType" : 5126, "count" : 1296, "type" : "VEC2", "max" : [0, -0], "min" : [0, -0], "name" : "TEXCOORD_0"}, {"bufferView" : 0, "byteOffset" : 40224, "componentType" : 5123, "count" : 144, "type" : "SCALAR", "max" : [143], "min" : [0]}, {"bufferView" : 4, "byteOffset" : 0, "componentType" : 5126, "count" : 144, "type" : "VEC3", "max" : [0.49076515436172485, -0.47787848114967346, 2.34434175491333], "min" : [-0.48546895384788513, -0.5325564742088318, 2.2851195335388184], "name" : "POSITION"}, {"bufferView" : 4, "byteOffset" : 12, "componentType" : 5126, "count" : 144, "type" : "VEC3", "max" : [0.7130844593048096, -0.6912203431129456, 0.18150877952575684], "min" : [-0.7130853533744812, -0.9997227191925049, -0.12897087633609772], "name" : "NORMAL"}, {"bufferView" : 4, "byteOffset" : 24, "componentType" : 5126, "count" : 144, "type" : "VEC2", "max" : [0, -0], "min" : [0, -0], "name" : "TEXCOORD_0"}, {"bufferView" : 0, "byteOffset" : 40512, "componentType" : 5123, "count" : 2064, "type" : "SCALAR", "max" : [2063], "min" : [0]}, {"bufferView" : 5, "byteOffset" : 0, "componentType" : 5126, "count" : 2064, "type" : "VEC3", "max" : [0.54194575548172, -0.16630475223064423, 2.489457130432129], "min" : [-0.5366495251655579, -0.5311866998672485, 2.1294033527374268], "name" : "POSITION"}, {"bufferView" : 5, "byteOffset" : 12, "componentType" : 5126, "count" : 2064, "type" : "VEC3", "max" : [0.982930064201355, 0.9997228384017944, 0.9828029274940491], "min" : [-0.9829301238059998, -0.9918097257614136, -0.9828035235404968], "name" : "NORMAL"}, {"bufferView" : 5, "byteOffset" : 24, "componentType" : 5126, "count" : 2064, "type" : "VEC2", "max" : [0, -0], "min" : [0, -0], "name" : "TEXCOORD_0"}], "asset" : {"generator" : "Aspose.3D 23.2", "version" : "2.0"}, "buffers" : [{"uri" : "data:application/octet-stream;base64,", "byteLength" : 758904}], "bufferViews" : [{"buffer" : 0, "byteOffset" : 0, "byteLength" : 44640, "target" : 34963}, {"buffer" : 0, "byteOffset" : 44644, "byteLength" : 516096, "byteStride" : 32, "target" : 34962}, {"buffer" : 0, "byteOffset" : 560744, "byteLength" : 86016, "byteStride" : 32, "target" : 34962}, {"buffer" : 0, "byteOffset" : 646764, "byteLength" : 41472, "byteStride" : 32, "target" : 34962}, {"buffer" : 0, "byteOffset" : 688240, "byteLength" : 4608, "byteStride" : 32, "target" : 34962}, {"buffer" : 0, "byteOffset" : 692852, "byteLength" : 66048, "byteStride" : 32, "target" : 34962}], "materials" : [{"name" : "Dragon_Main", "pbrMetallicRoughness" : {"baseColorFactor" : [0.3031931519508362, 0.08418010920286179, 0.014985345304012299, 1], "metallicFactor" : 0, "roughnessFactor" : 0}, "emissiveFactor" : [0.3031931519508362, 0.08418010920286179, 0.014985345304012299], "alphaMode" : "OPAQUE", "doubleSided" : false}, {"name" : "Dragon_Secondary", "pbrMetallicRoughness" : {"baseColorFactor" : [0.10461650043725967, 0.03560131788253784, 0.06847818195819855, 1], "metallicFactor" : 0, "roughnessFactor" : 0}, "emissiveFactor" : [0.10461650043725967, 0.03560131788253784, 0.06847818195819855], "alphaMode" : "OPAQUE", "doubleSided" : false}, {"name" : "Dragon_Horn", "pbrMetallicRoughness" : {"baseColorFactor" : [0.2753942608833313, 0.2868460416793823, 0.3505513072013855, 1], "metallicFactor" : 0, "roughnessFactor" : 0}, "emissiveFactor" : [0.2753942608833313, 0.2868460416793823, 0.3505513072013855], "alphaMode" : "OPAQUE", "doubleSided" : false}, {"name" : "Eye_Black", "pbrMetallicRoughness" : {"baseColorFactor" : [0.013310964219272137, 0.013725013472139835, 0.015994027256965637, 1], "metallicFactor" : 0, "roughnessFactor" : 0}, "emissiveFactor" : [0.013310964219272137, 0.013725013472139835, 0.015994027256965637], "alphaMode" : "OPAQUE", "doubleSided" : false}, {"name" : "Eye_White", "pbrMetallicRoughness" : {"baseColorFactor" : [0.2753942608833313, 0.2868460416793823, 0.3505513072013855, 1], "metallicFactor" : 0, "roughnessFactor" : 0}, "emissiveFactor" : [0.2753942608833313, 0.2868460416793823, 0.3505513072013855], "alphaMode" : "OPAQUE", "doubleSided" : false}], "meshes" : [{"primitives" : [{"attributes" : {"POSITION" : 1, "NORMAL" : 2, "TEXCOORD_0" : 3}, "indices" : 0, "material" : 0, "mode" : 4}, {"attributes" : {"POSITION" : 5, "NORMAL" : 6, "TEXCOORD_0" : 7}, "indices" : 4, "material" : 1, "mode" : 4}, {"attributes" : {"POSITION" : 9, "NORMAL" : 10, "TEXCOORD_0" : 11}, "indices" : 8, "material" : 2, "mode" : 4}, {"attributes" : {"POSITION" : 13, "NORMAL" : 14, "TEXCOORD_0" : 15}, "indices" : 12, "material" : 3, "mode" : 4}, {"attributes" : {"POSITION" : 17, "NORMAL" : 18, "TEXCOORD_0" : 19}, "indices" : 16, "material" : 4, "mode" : 4}], "name" : "Cube.221"}], "nodes" : [{"matrix" : [100, 0, 0, 0, 0, -1.6292067955264296E-05, -99.99999999999866, 0, 0, 99.99999999999866, -1.6292067955264296E-05, 0, 0, 0, 0, 1], "mesh" : 0, "name" : "Dragon"}], "scene" : 0, "scenes" : [{"nodes" : [0]}]}