{
	"asset":{
		"generator":"Khronos glTF Blender I/O v3.5.30",
		"version":"2.0"
	},
	"scene":0,
	"scenes":[
		{
			"name":"Scene",
			"nodes":[
				0
			]
		}
	],
	"nodes":[
		{
			"mesh":0,
			"name":"Dragon",
			"rotation":[
				-0.2950126826763153,
				0.016907306388020515,
				0.005221099592745304,
				0.9553294777870178
			],
			"scale":[
				0.018055155873298645,
				0.018055155873298645,
				0.018055155873298645
			],
			"translation":[
				0,
				-4.3975090980529785,
				-1.4661953449249268
			]
		}
	],
	"materials":[
		{
			"emissiveFactor":[
				0.3031931519508362,
				0.08418010920286179,
				0.014985345304012299
			],
			"name":"Dragon_Main",
			"pbrMetallicRoughness":{
				"baseColorFactor":[
					0.3031931519508362,
					0.08418010920286179,
					0.014985345304012299,
					1
				],
				"metallicFactor":0,
				"roughnessFactor":0
			}
		},
		{
			"emissiveFactor":[
				0.10461650043725967,
				0.03560131788253784,
				0.06847818195819855
			],
			"name":"Dragon_Secondary",
			"pbrMetallicRoughness":{
				"baseColorFactor":[
					0.10461650043725967,
					0.03560131788253784,
					0.06847818195819855,
					1
				],
				"metallicFactor":0,
				"roughnessFactor":0
			}
		},
		{
			"emissiveFactor":[
				0.2753942608833313,
				0.2868460416793823,
				0.3505513072013855
			],
			"name":"Dragon_Horn",
			"pbrMetallicRoughness":{
				"baseColorFactor":[
					0.2753942608833313,
					0.2868460416793823,
					0.3505513072013855,
					1
				],
				"metallicFactor":0,
				"roughnessFactor":0
			}
		},
		{
			"emissiveFactor":[
				0.013310964219272137,
				0.013725013472139835,
				0.015994027256965637
			],
			"name":"Eye_Black",
			"pbrMetallicRoughness":{
				"baseColorFactor":[
					0.013310964219272137,
					0.013725013472139835,
					0.015994027256965637,
					1
				],
				"metallicFactor":0,
				"roughnessFactor":0
			}
		},
		{
			"emissiveFactor":[
				0.2753942608833313,
				0.2868460416793823,
				0.3505513072013855
			],
			"name":"Eye_White",
			"pbrMetallicRoughness":{
				"baseColorFactor":[
					0.2753942608833313,
					0.2868460416793823,
					0.3505513072013855,
					1
				],
				"metallicFactor":0,
				"roughnessFactor":0
			}
		}
	],
	"meshes":[
		{
			"name":"Cube.221",
			"primitives":[
				{
					"attributes":{
						"POSITION":0,
						"TEXCOORD_0":1,
						"NORMAL":2
					},
					"indices":3,
					"material":0
				},
				{
					"attributes":{
						"POSITION":4,
						"TEXCOORD_0":5,
						"NORMAL":6
					},
					"indices":7,
					"material":1
				},
				{
					"attributes":{
						"POSITION":8,
						"TEXCOORD_0":9,
						"NORMAL":10
					},
					"indices":11,
					"material":2
				},
				{
					"attributes":{
						"POSITION":12,
						"TEXCOORD_0":13,
						"NORMAL":14
					},
					"indices":15,
					"material":3
				},
				{
					"attributes":{
						"POSITION":16,
						"TEXCOORD_0":17,
						"NORMAL":18
					},
					"indices":19,
					"material":4
				}
			]
		}
	],
	"accessors":[
		{
			"bufferView":0,
			"componentType":5126,
			"count":16128,
			"max":[
				273.7606201171875,
				-55.828399658203125,
				98.45157623291016
			],
			"min":[
				-273.7606201171875,
				-341.61444091796875,
				-143.1082000732422
			],
			"type":"VEC3"
		},
		{
			"bufferView":1,
			"componentType":5126,
			"count":16128,
			"type":"VEC2"
		},
		{
			"bufferView":2,
			"componentType":5126,
			"count":16128,
			"type":"VEC3"
		},
		{
			"bufferView":3,
			"componentType":5123,
			"count":16128,
			"type":"SCALAR"
		},
		{
			"bufferView":4,
			"componentType":5126,
			"count":2688,
			"max":[
				204.69297790527344,
				-112.62979125976562,
				92.56051635742188
			],
			"min":[
				-204.69297790527344,
				-268.52496337890625,
				-141.35548400878906
			],
			"type":"VEC3"
		},
		{
			"bufferView":5,
			"componentType":5126,
			"count":2688,
			"type":"VEC2"
		},
		{
			"bufferView":6,
			"componentType":5126,
			"count":2688,
			"type":"VEC3"
		},
		{
			"bufferView":7,
			"componentType":5123,
			"count":2688,
			"type":"SCALAR"
		},
		{
			"bufferView":8,
			"componentType":5126,
			"count":1296,
			"max":[
				130.01011657714844,
				-60.283935546875,
				71.90279388427734
			],
			"min":[
				-130.01011657714844,
				-207.85557556152344,
				-63.07901382446289
			],
			"type":"VEC3"
		},
		{
			"bufferView":9,
			"componentType":5126,
			"count":1296,
			"type":"VEC2"
		},
		{
			"bufferView":10,
			"componentType":5126,
			"count":1296,
			"type":"VEC3"
		},
		{
			"bufferView":11,
			"componentType":5123,
			"count":1296,
			"type":"SCALAR"
		},
		{
			"bufferView":12,
			"componentType":5126,
			"count":144,
			"max":[
				49.076515197753906,
				-137.20803833007812,
				53.25557327270508
			],
			"min":[
				-48.54689407348633,
				-143.13026428222656,
				47.78777313232422
			],
			"type":"VEC3"
		},
		{
			"bufferView":13,
			"componentType":5126,
			"count":144,
			"type":"VEC2"
		},
		{
			"bufferView":14,
			"componentType":5126,
			"count":144,
			"type":"VEC3"
		},
		{
			"bufferView":15,
			"componentType":5123,
			"count":144,
			"type":"SCALAR"
		},
		{
			"bufferView":16,
			"componentType":5126,
			"count":2064,
			"max":[
				54.194576263427734,
				-122.69650268554688,
				53.11859893798828
			],
			"min":[
				-53.66495132446289,
				-158.70187377929688,
				16.630403518676758
			],
			"type":"VEC3"
		},
		{
			"bufferView":17,
			"componentType":5126,
			"count":2064,
			"type":"VEC2"
		},
		{
			"bufferView":18,
			"componentType":5126,
			"count":2064,
			"type":"VEC3"
		},
		{
			"bufferView":19,
			"componentType":5123,
			"count":2064,
			"type":"SCALAR"
		}
	],
	"bufferViews":[
		{
			"buffer":0,
			"byteLength":193536,
			"byteOffset":0,
			"target":34962
		},
		{
			"buffer":0,
			"byteLength":129024,
			"byteOffset":193536,
			"target":34962
		},
		{
			"buffer":0,
			"byteLength":193536,
			"byteOffset":322560,
			"target":34962
		},
		{
			"buffer":0,
			"byteLength":32256,
			"byteOffset":516096,
			"target":34963
		},
		{
			"buffer":0,
			"byteLength":32256,
			"byteOffset":548352,
			"target":34962
		},
		{
			"buffer":0,
			"byteLength":21504,
			"byteOffset":580608,
			"target":34962
		},
		{
			"buffer":0,
			"byteLength":32256,
			"byteOffset":602112,
			"target":34962
		},
		{
			"buffer":0,
			"byteLength":5376,
			"byteOffset":634368,
			"target":34963
		},
		{
			"buffer":0,
			"byteLength":15552,
			"byteOffset":639744,
			"target":34962
		},
		{
			"buffer":0,
			"byteLength":10368,
			"byteOffset":655296,
			"target":34962
		},
		{
			"buffer":0,
			"byteLength":15552,
			"byteOffset":665664,
			"target":34962
		},
		{
			"buffer":0,
			"byteLength":2592,
			"byteOffset":681216,
			"target":34963
		},
		{
			"buffer":0,
			"byteLength":1728,
			"byteOffset":683808,
			"target":34962
		},
		{
			"buffer":0,
			"byteLength":1152,
			"byteOffset":685536,
			"target":34962
		},
		{
			"buffer":0,
			"byteLength":1728,
			"byteOffset":686688,
			"target":34962
		},
		{
			"buffer":0,
			"byteLength":288,
			"byteOffset":688416,
			"target":34963
		},
		{
			"buffer":0,
			"byteLength":24768,
			"byteOffset":688704,
			"target":34962
		},
		{
			"buffer":0,
			"byteLength":16512,
			"byteOffset":713472,
			"target":34962
		},
		{
			"buffer":0,
			"byteLength":24768,
			"byteOffset":729984,
			"target":34962
		},
		{
			"buffer":0,
			"byteLength":4128,
			"byteOffset":754752,
			"target":34963
		}
	],
	"buffers":[
		{
			"byteLength":758880,
			"uri":"data:application/octet-stream;base64,"
		}
	]
}
